<svg xmlns="http://www.w3.org/2000/svg" viewBox="0 0 150 210" width="150" height="210">
  <rect x="2" y="2" width="146" height="206" rx="12" fill="#fffdf6" stroke="#2e7d32" stroke-width="2.5"/>
  <rect x="6" y="6" width="138" height="198" rx="9" fill="none" stroke="#2e7d32" stroke-opacity="0.25" stroke-width="1"/>
  <g transform="translate(20,26) rotate(0)">
    <text text-anchor="middle" font-family="Georgia, serif" font-weight="bold" font-size="20" fill="#2e7d32">REY</text>
    <g transform="translate(0,16) scale(0.55)"><g fill="#2e7d32" stroke="#1d4d1f" stroke-width="1"><rect x="-2.3" y="-13" width="4.6" height="26" rx="2.3"/><circle cx="0" cy="-13" r="3.4"/><circle cx="-4" cy="-7" r="2.6"/><circle cx="4" cy="-7" r="2.6"/></g></g>
  </g>
  <g transform="translate(130,184) rotate(180)">
    <text text-anchor="middle" font-family="Georgia, serif" font-weight="bold" font-size="20" fill="#2e7d32">REY</text>
    <g transform="translate(0,16) scale(0.55)"><g fill="#2e7d32" stroke="#1d4d1f" stroke-width="1"><rect x="-2.3" y="-13" width="4.6" height="26" rx="2.3"/><circle cx="0" cy="-13" r="3.4"/><circle cx="-4" cy="-7" r="2.6"/><circle cx="4" cy="-7" r="2.6"/></g></g>
  </g>
  
    <g transform="translate(75,108)">
      <rect x="-40" y="-58" width="80" height="116" rx="8" fill="#fff" stroke="#2e7d32" stroke-width="2.5"/>
      <g transform="translate(0,-18) scale(2.1)"><g fill="#2e7d32" stroke="#1d4d1f" stroke-width="1"><rect x="-2.3" y="-13" width="4.6" height="26" rx="2.3"/><circle cx="0" cy="-13" r="3.4"/><circle cx="-4" cy="-7" r="2.6"/><circle cx="4" cy="-7" r="2.6"/></g></g>
      <text x="0" y="40" text-anchor="middle" font-family="Georgia, serif" font-size="20" font-weight="bold" fill="#2e7d32">REY</text>
    </g>
</svg>