<svg xmlns="http://www.w3.org/2000/svg" viewBox="0 0 150 210" width="150" height="210">
  <rect x="2" y="2" width="146" height="206" rx="12" fill="#7b1113" stroke="#3a0708" stroke-width="2.5"/>
  <rect x="10" y="10" width="130" height="190" rx="8" fill="none" stroke="#e8c46a" stroke-width="2"/>
  <g stroke="#e8c46a" stroke-width="1.2" opacity="0.85" fill="none">
    <line x1="10" y1="10" x2="10" y2="10"/><line x1="10" y1="200" x2="140" y2="200"/><line x1="26" y1="10" x2="10" y2="31"/><line x1="26" y1="200" x2="140" y2="179"/><line x1="42" y1="10" x2="10" y2="52"/><line x1="42" y1="200" x2="140" y2="158"/><line x1="58" y1="10" x2="10" y2="73"/><line x1="58" y1="200" x2="140" y2="137"/><line x1="74" y1="10" x2="10" y2="94"/><line x1="74" y1="200" x2="140" y2="116"/><line x1="90" y1="10" x2="10" y2="115"/><line x1="90" y1="200" x2="140" y2="95"/><line x1="106" y1="10" x2="10" y2="136"/><line x1="106" y1="200" x2="140" y2="74"/><line x1="122" y1="10" x2="10" y2="157"/><line x1="122" y1="200" x2="140" y2="53"/><line x1="138" y1="10" x2="10" y2="178"/><line x1="138" y1="200" x2="140" y2="32"/>
  </g>
  <circle cx="75" cy="105" r="34" fill="#7b1113" stroke="#e8c46a" stroke-width="2"/>
  <text x="75" y="113" text-anchor="middle" font-family="Georgia, serif" font-size="26" font-weight="bold" fill="#e8c46a">R</text>
</svg>