<svg xmlns="http://www.w3.org/2000/svg" viewBox="0 0 100 100" width="100" height="100">
  <circle cx="50" cy="50" r="50" fill="#f4b942"/>
  <circle cx="50" cy="92" r="34" fill="#ffd9a0"/>
  <circle cx="50" cy="50" r="26" fill="#ffd9a0"/>
  <path d="M24,46 a26,26 0 0 1 52,0 q-26,-18 -52,0 Z" fill="#5b3a1a"/>
  <path d="M30,66 q20,22 40,0 q-2,16 -20,16 q-18,0 -20,-16 Z" fill="#5b3a1a" opacity="0.85"/>
  <circle cx="40" cy="50" r="3.2" fill="#2b2b2b"/>
  <circle cx="60" cy="50" r="3.2" fill="#2b2b2b"/>
  <path d="M42,62 q8,7 16,0" stroke="#a0522d" stroke-width="2.5" fill="none" stroke-linecap="round"/>
  <g stroke="#222" stroke-width="2" fill="none"><circle cx="40" cy="58" r="9"/><circle cx="60" cy="58" r="9"/><line x1="49" y1="58" x2="51" y2="58"/></g>
</svg>