<svg xmlns="http://www.w3.org/2000/svg" viewBox="0 0 100 100" width="100" height="100">
  <circle cx="50" cy="50" r="50" fill="#6c8ead"/>
  <circle cx="50" cy="92" r="34" fill="#ffd9a0"/>
  <circle cx="50" cy="50" r="26" fill="#ffd9a0"/>
  <!-- casco vikingo con cuernos -->
  <path d="M27,44 Q14,34 15,15 Q28,28 34,40 Z" fill="#f5efdc" stroke="#c9bfa3" stroke-width="2"/>
  <path d="M73,44 Q86,34 85,15 Q72,28 66,40 Z" fill="#f5efdc" stroke="#c9bfa3" stroke-width="2"/>
  <path d="M25,46 a26,26 0 0 1 50,0 Z" fill="#8a8f98" stroke="#5e636b" stroke-width="2"/>
  <rect x="22" y="42" width="56" height="7" rx="3.5" fill="#6b7078"/>
  <circle cx="30" cy="45.5" r="1.6" fill="#d9dce1"/>
  <circle cx="50" cy="45.5" r="1.6" fill="#d9dce1"/>
  <circle cx="70" cy="45.5" r="1.6" fill="#d9dce1"/>
  <circle cx="40" cy="55" r="3.2" fill="#2b2b2b"/>
  <circle cx="60" cy="55" r="3.2" fill="#2b2b2b"/>
  <path d="M42,66 q8,7 16,0" stroke="#a0522d" stroke-width="2.5" fill="none" stroke-linecap="round"/>
</svg>